<svg version="1.1" xmlns="http://www.w3.org/2000/svg" xmlns:xlink="http://www.w3.org/1999/xlink" width="216.5" height="74.13588" viewBox="0,0,216.5,74.13588"><g transform="translate(-89.79407,-160.21024)"><g stroke-miterlimit="10"><text transform="translate(92.80906,186.66624) scale(0.5,0.5)" font-size="40" xml:space="preserve" fill="#000000" stroke="none" stroke-width="1" font-family="Pixel" font-weight="400" text-anchor="start"><tspan x="0" dy="0">press hereto start</tspan></text><text transform="translate(90.54407,185.46024) scale(0.5,0.5)" font-size="40" xml:space="preserve" fill="#ffffff" stroke="#ffffff" stroke-width="1" font-family="Pixel" font-weight="400" text-anchor="start"><tspan x="0" dy="0">press here to start</tspan></text><path d="M178.91011,199.20571c0.48587,-2.61252 1.17194,-6.08192 2.69606,-6.78895c0.51007,-0.32851 1.14037,-0.47335 1.78506,-0.36026c1.35995,0.23854 2.26903,1.53437 2.0305,2.89432c-0.00805,0.04587 -0.0173,0.09123 -0.02771,0.13605c0.06988,0.23414 -0.09604,0.45077 -0.25998,0.66655c-0.06132,0.10803 -0.1303,0.21062 -0.20608,0.3072c-1.14635,2.30089 -1.68775,7.25586 -2.02729,9.33521c-0.98046,6.00447 -2.70814,15.05823 -7.54355,19.62761c-1.63344,1.54357 -4.6173,2.3133 -5.98533,3.76629c-0.04809,0.05106 2.08033,1.00567 2.21671,1.1303c1.29853,1.18654 0.68279,3.41474 -0.75583,4.30922c-1.72014,1.06951 -12.45799,-5.51445 -13.18985,-7.01975c-1.33879,-2.75364 3.81709,-9.32545 6.68979,-8.98449c3.40132,0.4037 1.80225,4.16839 0.46538,5.70701c-0.17483,0.2012 -0.77091,0.42342 -0.55328,0.57731c1.76075,1.24496 6.75634,-1.814 7.63805,-3.08765c4.68636,-6.76949 5.52991,-14.16431 7.02733,-22.21599z" fill="#ffffff" stroke="none" stroke-width="0.5"/></g></g></svg>