<svg version="1.1" xmlns="http://www.w3.org/2000/svg" xmlns:xlink="http://www.w3.org/1999/xlink" width="1691.5654" height="713" viewBox="0,0,1691.5654,713"><g transform="translate(695.96539,184.10001)"><g fill="#ffffff" stroke="none" stroke-width="0.5" stroke-miterlimit="10"><path d="M757.15946,29.94868l0.76574,0.12522l0.77567,0.01915l32,4l0.89177,0.20319l0.91026,0.08924l10,2l0.75711,0.23177l0.78156,0.12688l14.81129,3.94968l3.81053,0.95263l1.13693,0.40813l3.45135,0.59934l2.51957,2.42567l4.26101,2.63025l3.217,4.56907l0.78808,0.75871l0.17136,0.60397l2.36066,3.35282l0.10109,5.32382l1.45339,5.12259l-1.28217,3.89489l0.01192,0.62769l-0.53303,0.95529l-1.74728,5.30778l-3.31057,3.75693l-1.70414,3.05418l-3.12731,1.57827l-0.96884,0.72148l-5,3l-1.80631,0.85203l-1.77132,0.92256l-0.23558,0.09423l-0.37152,0.37152l-3.03835,2.48592l-0.07738,0.04002l-0.06244,0.06075l-3.31916,2.09631l-3.17284,1.58642l0.12794,1.74853l-1.26956,2.20998l-0.43981,2.36721l-5.00244,7.50366l-0.52109,0.50976l-0.22486,0.39143l-0.42461,0.24392l-1.63569,1.60013l-3.91879,3.13503l-2.81042,2.81042l1.31331,0.56285l0.29852,0.09498l0.07574,0.06541l11.27224,4.83096l2.27062,1.25392l2.33453,0.63095l3.48993,4.04097l2.16325,1.87048l0.27717,0.56862l7.67177,0.69743l26.79156,1.98456l3.86672,0.67812l0.87098,0.34989l0.9273,0.14546l3.66855,1.39754l4,2l3.31916,2.09631l6.46363,6.28894l0.21701,0.52082l1.18053,1.05141l1.15894,4.56332l1.81084,4.34602l-0.31358,1.54945l0.13889,0.54686l-1.39754,8.90933l-1.39754,3.66855l-1,2l-2.09631,3.31916l-0.06075,0.06244l-0.04002,0.07738l-2.48592,3.03835l-4,4l-3.03835,2.48592l-0.07738,0.04002l-0.06244,0.06075l-3.31916,2.09631l-8.61558,4.30779l0.7657,1.83767l-0.69182,3.41838l-0.05687,4.15185l-0.86469,3.82932l-0.36411,1.09232l-0.04618,0.63111l-0.46179,0.89279l-0.12793,0.38378l-1.60584,3.58227l-1.09417,1.5013l-0.85348,1.65006l-2.48592,3.03835l-0.28605,0.28605l-0.59201,0.8123l-0.54383,0.32354l-3.5781,3.5781l-1.59614,1.30594l-1.55057,1.35973l-14,10l-0.95274,0.54624l-0.01382,0.01228l-1.2205,0.6954l-1.21863,0.69868l-0.01759,0.00568l-0.95421,0.54368l-17.48106,7.76936l-15.49206,7.74603l-1.48316,0.56501l-1.43842,0.67077l-33.66638,11.78323l0.54247,1.88687l-0.28618,2.28942l0.04888,0.43992l-0.38304,3.907l-0.55789,2.78943l-0.2302,1.84158l-0.17904,0.20462l-0.03287,0.16437l-0.10698,0.34948l-0.10074,1.37674l-0.78575,1.51912l-0.15565,0.50845l-1.64294,2.96882l-1.55887,3.01381l-0.33672,0.41154l-0.82813,1.49644l-1.08964,0.8475l-0.23144,0.28287l-7,7l-1.07106,0.87632l-0.98924,0.96773l-10,8l-1.29122,0.8369l-1.22372,0.93283l-26,16l-1.76249,0.8557l-1.72456,0.92976l-19.01538,7.92308h38.4l0.29032,0.02903l0.29092,-0.02227l86,2l0.36518,0.04512l0.36755,-0.01732l76,4l0.37889,0.05814l0.38327,-0.00634l72,6l0.856,0.15825l0.86929,0.0461l23.33425,3.58988l1.95807,-0.42747l2.19572,0.87582l0.61678,0.06168l8.59375,2.73438l1.88874,1.63118l0.61126,0.24382l0.68287,0.87384l5.41088,4.67303l0.93006,3.44122l2.19494,2.80878l0.4919,7.13252l0.28935,1.0706l-0.1717,0.6353l0.1717,2.4897l-2.96875,8.51563l-0.32072,0.53043l-0.61678,2.28207l-1.94052,1.67591l-0.40324,0.53766l-0.0439,0.12439l-0.26766,0.29103l-1.43842,1.91789l-2.65625,2.89063l-0.95151,0.67821l-0.79099,0.86005l-3.19777,2.2772l-2.08149,1.18942l-0.32198,0.2295l-0.12887,0.02813l-4.46765,2.55294l-1.46735,0.65436l-1.41738,0.75652l-16.42479,6.76315l-0.05164,4.82656l-6.45993,9.33842l-1.3748,0.86446l-1.32307,1.88205l-4.22948,1.60933l-0.7071,0.44462l-3.68376,1.35694l-0.45378,0.11745l0.79825,0.9243l0.07225,0.03586l3.0852,3.62013l3.10891,3.59979l0.02446,0.07686l1.14671,1.34554l0.38914,3.48143l1.17407,3.68992l0.0357,0.35703l0.49036,0.85359l-0.17113,2.33873l0.03569,0.3569v2l-0.39062,3.90625l-0.13421,0.4218l-0.16837,2.30108l-1.46497,2.83227l-0.96683,3.0386l-1.50805,1.74617l-0.20336,0.39315l-2.48592,3.03835l-2.01148,2.01148l-1.21306,1.4046l-0.26248,0.07094l-2.7241,2.7241l-0.17496,0.31615l-0.63537,0.49418l-0.97855,0.97855l-3.03835,2.48592l-1.30584,0.67543l-1.16049,0.9026l-3.53036,1.71695l-1.29856,0.47842l-0.71495,0.3698l-0.36037,0.02637l-16.62612,6.12541l-1.47531,0.38193l-1.44134,0.49492l-34,8l-1.16636,0.15417l-1.14369,0.27593l-58,8l-1.02037,0.03818l-1.00882,0.1578l-108,6l-0.54776,-0.02421l-0.54489,0.06097l-170,2l-0.14713,-0.01297l-0.14697,0.0147h-264l-0.3982,-0.03982l-0.39927,0.0271l-376,-12l-0.75717,-0.1002l-0.76376,0.00519l-408,-38l-0.62577,-0.122l-0.63693,-0.02809l-76,-11l-3.81001,-0.94614l-1.76848,-0.85819l-3.3404,-1.06285l-1.47509,-1.27394l-1.52947,-0.7422l-2.0039,-2.30934l-3.58529,-3.09639l-0.40643,-1.50377l-1.44637,-1.66683l-0.80495,-6.66303l-1.24851,-4.61949l0.47716,-1.76548l-0.21934,-1.81562l1.89735,-4.39301l1.75108,-6.47901l1.67022,-1.44246l0.61764,-1.43005l3.99186,-2.55089l2.31403,-1.99848l1.62001,-0.51546l1.64236,-1.04951l3.4582,-0.5734l1.87317,-0.59601l3.90625,-0.39062h25l1.1289,0.11289l1.13449,-0.01022l21.34982,1.94089l6.07425,0.23363l-0.92616,-0.58494l-2.21443,-0.59849l-4.24103,-4.91067l-2.26898,-2.20766l-0.3378,-0.81072l-0.10914,-0.12637l-1.06047,-0.26711l-0.6703,-0.32804l-4.26235,-1.0825l-1.58427,-1.77883l-1.58334,-0.77488l-7.4133,-8.60115l-0.20117,-1.71327l-85.28823,-7.52543l-1.06942,0.09878l-1.71844,-0.55463l-1.79278,-0.34047l-2.49623,-1.04381l-2.57489,-0.83105l-1.58309,-0.90764l-1.66595,-0.69663l-0.74796,-0.77069l-11.76601,-8.40429l-1.56486,-0.42293l-2.42787,-2.81122l-0.60156,-0.52752l-0.94828,-1.26703l-3.44416,-3.98798l-0.33978,-1.06788l-0.67147,-0.89718l-1.24327,-5.1206l-0.47985,-1.5081l-0.07961,-0.79613l-0.87641,-3.60963l0.5654,-1.5192v-3.9813l0.12456,-1.24556l-0.45501,-2.2483l2.49559,-5.98941l0.95987,-3.01673l0.57406,-0.6647l0.3378,-0.81072l2.26898,-2.20766l4.24103,-4.91067l2.21443,-0.59849l1.05836,-0.66844l2,-1l0.80587,-0.307l0.75908,-0.40924l12,-5l1.79057,-0.54433l1.76143,-0.63231l16,-4l1.99982,-0.29266l1.98744,-0.36743l23.48653,-1.95721l1.42548,-0.17819l-5.79711,-6.69835l-0.88672,-7.42109l-1.48252,-7.32537l4.36732,-10.48157l1.24005,-1.20653l0.93979,-2.16816l3.73386,-2.37917l0.54993,-0.53507l3.31916,-2.09631l1.21031,-0.60516l0.76295,-0.48615l0.31195,-0.05131l9.71478,-4.85739l0.53212,-0.20271l0.49476,-0.2819l17.90401,-7.95734l21.90437,-9.95653l2.14745,-0.72827l2.13423,-0.76613l15.80767,-3.95192l-0.1288,-0.20229l-1.41674,-1.72473l-4,-6l-1.84178,-3.46688l-0.22367,-0.778l-1.59645,-2.17997l-0.14606,-3.8809l-0.52564,-1.82832l0.35112,-2.80896l-0.10646,-2.82882l0.68205,-1.77591l0.48171,-3.85366l1.77929,-2.03348l0.29023,-0.7557l2.13519,-3.29429l4,-5l0.96773,-0.98924l0.87632,-1.07106l9,-9l1.21391,-0.9932l0.10833,-0.12753l0.86743,-0.67081l0.84868,-0.69438l0.14863,-0.07688l1.24072,-0.95949l16,-10l1.06514,-0.5263l1.0045,-0.63442l24,-12l0.97254,-0.37049l0.92303,-0.48075l30,-12l1.02302,-0.2951l0.9827,-0.40983l12.36415,-3.763l-1.3573,-2.62411l-12.24019,-0.74183l-0.28008,-0.04526l-0.28368,0.00469l-48,-4l-1.40489,-0.25973l-1.42188,-0.1394l-9.10432,-1.82086l-31.09364,-3.88671l-0.67806,-0.1545l-0.69321,-0.0557l-8.78211,-1.59675h-2.74575l-3.1873,-0.31873l-1.75376,0.02402l-4.54332,-1.87078l-3.01563,-0.95952l-0.62454,-0.53937l-2.31627,-0.95376l-1.62568,-2.45066l-4.02726,-3.47809l-1.18258,-4.37555l-1.44075,-2.17188l-0.23252,-4.01921l-1.0504,-3.88648l0.68001,-2.51603l-0.26178,-4.52498l2.72073,-4.57313l0.76729,-2.83898l1.8958,-1.63728l0.42192,-0.70919l2.55745,-1.8639l3.71858,-3.2115l1.67136,-0.5318l2.92295,-1.31029l3,-1l3.82932,-0.86469l0.08711,-0.00119l0.08302,-0.02641l3.90625,-0.39062h0.93094l9.95909,-1.65985l0.15659,-0.01027l0.15196,-0.03918l21.01499,-3.23308l-9.3939,-4.69695l-0.93126,-0.58816l-0.99084,-0.48106l-12.51511,-7.7016l-1.83558,-0.4961l-7.42187,-8.59375l-0.07466,-0.23464l-0.1607,-0.18656l-3.42915,-10.82486l0.48255,-1.63079l0.05696,-0.77849v-2.84467l0.39063,-3.90625l0.13421,-0.4218l0.16837,-2.30108l1.46497,-2.83227l0.96683,-3.0386l1.50805,-1.74617l0.20336,-0.39315l2.48592,-3.03835l2.01148,-2.01148l1.21306,-1.4046l0.42409,-0.11462l0.72356,-0.592l1.30548,-1.19963l12,-9l1.92133,-1.16173l1.89833,-1.19895l3.27309,-1.63655l-1.05589,-1.02735l-0.21701,-0.52082l-1.18053,-1.05141l-1.15894,-4.56332l-1.81084,-4.34602l0.31358,-1.54945l-0.13889,-0.54686l1.29105,-8.23043l-0.08809,-0.75248l0.8415,-1.62456l0.75064,-1.97042l1,-2l1.70127,-2.69368l0.92928,-1.79403l3.02383,-2.48836l2.73088,-2.80674l1.865,-0.77708l0.04014,-0.0209l0.2649,-0.5298l0.27069,-0.97642l1.0876,-1.3595l1.18273,-1.87266l1.7741,-1.82338l1.58925,-1.98656l1.7115,-1.40587l1.2141,-1.24782l0.93531,-0.38971l11.17261,-7.44841l2.01859,-1.07238l2.00093,-1.10499l14,-6l0.67072,-0.21132l0.63369,-0.30489l22,-8l0.32854,-0.08358l0.30934,-0.13867l1.15772,-0.38591l-34.20735,-4.0723l-1.13131,-0.2508l-1.15159,-0.12885l-84,-18l-0.1877,-0.06028l-0.19556,-0.025l-13,-3l-3.71838,-1.25898l-1.94017,-1.14946l-3.17309,-0.85759l-1.80799,-2.09346l-0.83758,-0.49623l-2.26693,-3.09847l-2.50938,-2.9056l-0.29518,-0.92771l-1.63331,-2.23242l-0.12213,-3.28466l-0.68376,-2.14895l-0.39062,-3.90625v-2l0.39063,-3.90625l0.5797,-1.82192l0.06033,-3.17743l1.73452,-2.46351l0.35983,-1.13088l2.36218,-2.73515l2.08058,-2.95502l1.00984,-0.62336l1.96928,-2.28022l3.06793,-0.82917l1.62693,-1.00428l3.69488,-1.32637l3.59589,-0.89897l5.75213,-1.64346l10.1718,-3.69884l1.74302,-0.4434l0.20055,-0.08925l0.93472,-0.19955l0.92628,-0.23563l0.21933,-0.00894l1.7589,-0.3755l17.72798,-1.96978l59.72871,-7.96383l1.31926,-0.0434l1.3094,-0.16678l73.78264,-1.99413l89.78277,-3.99035l0.2269,0.01255l0.22545,-0.02855l76,-2l0.05125,0.00377l0.051,-0.00625l90,-2l0.06954,0.0054l0.06927,-0.0081l120,-2l0.20846,0.01734l0.20815,-0.02081h144l0.41586,0.04159l0.41701,-0.02771l40.62241,1.35408l26.19591,-0.36552l0.48894,0.04201l0.48938,-0.03652l396.7626,9.99402l1.00542,-0.15771l2.02457,0.51418l1.10259,0.13838l1.53664,0.5319l6.34185,1.61063l1.03884,1.16642l8.00898,7.27688l0.57471,2.36094l0.33497,0.3761l1.20025,5.93065l1.43114,5.87921l-0.14361,0.48273l0.48199,2.3816l-0.55184,1.32442l88.41051,4.21002l2.11306,0.31342l2.12107,0.25361l27,6l3.72849,1.22871l3.21927,1.87208l1.49648,0.50263l0.65487,0.74842l2.42532,1.41038l6.77683,9.10637l0.00191,0.00218l0.00006,0.00046l0.00028,0.00037l0.00013,0.00289l1.40795,11.26362l-0.77521,2.69637l0.04503,0.99346l-0.73266,1.39832l-1.02898,3.57905l-1.84178,3.46688l-2,3l-0.60036,0.73087l-0.81596,1.49478l-4.07155,3.2047l-4.04605,3.23684l-1.64109,0.45496l-0.84817,0.41858l-7.93904,2.97714l-20.93916,7.97682l-1.18022,0.31942l-1.14173,0.43749l-22,6l-1.0664,0.17931l-1.0394,0.29835l-44,8l-0.78349,0.06296l-0.76762,0.16906l-6.01673,0.70785l5.71023,0.60047l0.24065,0.0499l0.24569,0.00607l16,2l2.40188,0.54726l2.40294,0.5426l3.08029,1.02676l22.93142,1.76396l0.72473,0.12922l0.73569,0.02639l44,6l1.33115,0.31899l1.35441,0.19821l15.0314,3.75785l17.01518,2.83586l3.78888,1.02749l3.17371,1.62494l3.38055,0.91366l1.26519,1.46496l0.20784,0.10641l2.94095,3.53955l3.0079,3.48283l0.0708,0.2225l1.23703,1.48881l0.34547,3.48476l1.08108,3.39767l0.0357,0.35703l0.49036,0.85359l-0.17113,2.33873l0.03569,0.3569v2l-0.39062,3.90625l-0.13421,0.4218l-0.16837,2.30108l-1.46497,2.83227l-0.96683,3.0386l-1.50805,1.74617l-0.20336,0.39315l-2.48592,3.03835l-2.01148,2.01148l-1.21306,1.4046l-0.39823,0.10763l-0.4458,0.48385l-9,8l-1.88237,1.36376l-1.86433,1.38833l-7.83818,4.70291zM608.45295,477.89999l-28.37746,0l-1.77359,0.35472zM646.98608,298.4058l7.70928,-3.2122l-25.87209,5.48802l0.3348,0.44284l0.11961,0.09787l2.13777,2.13777zM-244.79101,-127.10607l-140.82109,4.89813l79.10124,10.28316l90.37917,2.88444l79.86195,-5.98965l0.03386,0.00084l0.03337,-0.00579l166,-12l0.2013,0.00554l0.19894,-0.03125l91.9445,-5.16542zM-478.7176,32.6456l7.58562,2.33404l39.43127,11.82938l52.10305,13.35976l-1.37055,-4.94376l2.45925,-7.32185l2.01521,-7.45629l6.68586,-5.77415l-2.3842,-2.05908l-57.62384,-7.94812l-0.85742,-0.20686l-0.8769,-0.09492l-8.48327,-1.78595l-2.17934,0.54483z"/></g></g></svg>